<svg width="30" height="30" viewBox="0 0 30 30" fill="none" xmlns="http://www.w3.org/2000/svg">
    <path d="M4.31641 8.09904C4.31641 7.85871 4.41188 7.62822 4.58182 7.45828C4.75176 7.28834 4.98225 7.19287 5.22258 7.19287H25.1583C25.3987 7.19287 25.6292 7.28834 25.7991 7.45828C25.9691 7.62822 26.0645 7.85871 26.0645 8.09904C26.0645 8.33937 25.9691 8.56986 25.7991 8.7398C25.6292 8.90974 25.3987 9.00521 25.1583 9.00521H5.22258C4.98225 9.00521 4.75176 8.90974 4.58182 8.7398C4.41188 8.56986 4.31641 8.33937 4.31641 8.09904ZM5.22258 13.5361H19.7213C19.9617 13.5361 20.1921 13.4406 20.3621 13.2707C20.532 13.1007 20.6275 12.8702 20.6275 12.6299C20.6275 12.3896 20.532 12.1591 20.3621 11.9891C20.1921 11.8192 19.9617 11.7237 19.7213 11.7237H5.22258C4.98225 11.7237 4.75176 11.8192 4.58182 11.9891C4.41188 12.1591 4.31641 12.3896 4.31641 12.6299C4.31641 12.8702 4.41188 13.1007 4.58182 13.2707C4.75176 13.4406 4.98225 13.5361 5.22258 13.5361ZM25.1583 16.2546H5.22258C4.98225 16.2546 4.75176 16.3501 4.58182 16.52C4.41188 16.6899 4.31641 16.9204 4.31641 17.1608C4.31641 17.4011 4.41188 17.6316 4.58182 17.8015C4.75176 17.9715 4.98225 18.0669 5.22258 18.0669H25.1583C25.3987 18.0669 25.6292 17.9715 25.7991 17.8015C25.9691 17.6316 26.0645 17.4011 26.0645 17.1608C26.0645 16.9204 25.9691 16.6899 25.7991 16.52C25.6292 16.3501 25.3987 16.2546 25.1583 16.2546ZM19.7213 20.7854H5.22258C4.98225 20.7854 4.75176 20.8809 4.58182 21.0509C4.41188 21.2208 4.31641 21.4513 4.31641 21.6916C4.31641 21.9319 4.41188 22.1624 4.58182 22.3324C4.75176 22.5023 4.98225 22.5978 5.22258 22.5978H19.7213C19.9617 22.5978 20.1921 22.5023 20.3621 22.3324C20.532 22.1624 20.6275 21.9319 20.6275 21.6916C20.6275 21.4513 20.532 21.2208 20.3621 21.0509C20.1921 20.8809 19.9617 20.7854 19.7213 20.7854Z" fill="white"/>
</svg>
