<svg width="51" height="45" viewBox="0 0 51 45" fill="none" xmlns="http://www.w3.org/2000/svg">
<path d="M5.12891 18.0094H9.81641V29.0094H6.69141C6.27701 29.0094 5.87958 29.1543 5.58655 29.4121C5.29353 29.67 5.12891 30.0197 5.12891 30.3844C5.12891 30.7491 5.29353 31.0988 5.58655 31.3567C5.87958 31.6145 6.27701 31.7594 6.69141 31.7594H44.1914C44.6058 31.7594 45.0032 31.6145 45.2963 31.3567C45.5893 31.0988 45.7539 30.7491 45.7539 30.3844C45.7539 30.0197 45.5893 29.67 45.2963 29.4121C45.0032 29.1543 44.6058 29.0094 44.1914 29.0094H41.0664V18.0094H45.7539C46.0939 18.0091 46.4245 17.9112 46.6955 17.7306C46.9665 17.55 47.1633 17.2966 47.2558 17.0087C47.3484 16.7208 47.3317 16.4143 47.2083 16.1355C47.085 15.8567 46.8617 15.6209 46.5723 15.4639L26.2598 4.46393C26.0136 4.33076 25.7303 4.26025 25.4414 4.26025C25.1525 4.26025 24.8692 4.33076 24.623 4.46393L4.31055 15.4639C4.02115 15.6209 3.79783 15.8567 3.67447 16.1355C3.55111 16.4143 3.53445 16.7208 3.627 17.0087C3.71955 17.2966 3.91627 17.55 4.18731 17.7306C4.45836 17.9112 4.78894 18.0091 5.12891 18.0094ZM12.9414 18.0094H19.1914V29.0094H12.9414V18.0094ZM28.5664 18.0094V29.0094H22.3164V18.0094H28.5664ZM37.9414 29.0094H31.6914V18.0094H37.9414V29.0094ZM25.4414 7.2483L40.2344 15.2594H10.6484L25.4414 7.2483ZM48.8789 35.8844C48.8789 36.2491 48.7143 36.5988 48.4213 36.8567C48.1282 37.1145 47.7308 37.2594 47.3164 37.2594H3.56641C3.15201 37.2594 2.75458 37.1145 2.46155 36.8567C2.16853 36.5988 2.00391 36.2491 2.00391 35.8844C2.00391 35.5197 2.16853 35.17 2.46155 34.9121C2.75458 34.6543 3.15201 34.5094 3.56641 34.5094H47.3164C47.7308 34.5094 48.1282 34.6543 48.4213 34.9121C48.7143 35.17 48.8789 35.5197 48.8789 35.8844Z" fill="#A7016E"/>
</svg>
