<svg width="41" height="41" viewBox="0 0 41 41" fill="none" xmlns="http://www.w3.org/2000/svg">
<path fill-rule="evenodd" clip-rule="evenodd" d="M33.7747 22.2699V30.6032C33.7747 31.9293 33.248 33.201 32.3103 34.1387C31.3726 35.0764 30.1008 35.6032 28.7747 35.6032H22.1081V22.2699H33.7747ZM18.7747 22.2699V35.6032H12.1081C10.782 35.6032 9.51022 35.0764 8.57254 34.1387C7.63486 33.201 7.10808 31.9293 7.10808 30.6032V22.2699H18.7747ZM15.4414 3.93653C16.3874 3.93541 17.3227 4.13612 18.1849 4.52527C19.0472 4.91442 19.8164 5.48306 20.4414 6.19319C21.0664 5.48306 21.8356 4.91442 22.6979 4.52527C23.5601 4.13612 24.4954 3.93541 25.4414 3.93653H26.2747C26.9378 3.93653 27.5737 4.19992 28.0425 4.66876C28.5113 5.1376 28.7747 5.77349 28.7747 6.43653V7.26986C28.7747 8.48486 28.4497 9.62319 27.8831 10.6032H32.1081C32.9921 10.6032 33.84 10.9544 34.4651 11.5795C35.0902 12.2046 35.4414 13.0525 35.4414 13.9365V17.2699C35.4414 17.8765 35.2797 18.4465 34.9947 18.9365H22.1081V13.9365C22.1081 13.4945 21.9325 13.0706 21.6199 12.758C21.3074 12.4455 20.8834 12.2699 20.4414 12.2699C19.9994 12.2699 19.5755 12.4455 19.2629 12.758C18.9503 13.0706 18.7747 13.4945 18.7747 13.9365V18.9365H5.88808C5.59475 18.4301 5.44065 17.8551 5.44141 17.2699V13.9365C5.44141 13.0525 5.7926 12.2046 6.41772 11.5795C7.04284 10.9544 7.89069 10.6032 8.77474 10.6032H12.9997C12.4138 9.59014 12.1062 8.44016 12.1081 7.26986V6.43653C12.1081 5.77349 12.3715 5.1376 12.8403 4.66876C13.3091 4.19992 13.945 3.93653 14.6081 3.93653H15.4414ZM15.4414 7.26986C15.4414 8.15392 15.7926 9.00176 16.4177 9.62688C17.0428 10.252 17.8907 10.6032 18.7747 10.6032C18.7747 9.71914 18.4236 8.87129 17.7984 8.24617C17.1733 7.62105 16.3255 7.26986 15.4414 7.26986ZM25.4414 7.26986C24.5574 7.26986 23.7095 7.62105 23.0844 8.24617C22.4593 8.87129 22.1081 9.71914 22.1081 10.6032C22.9921 10.6032 23.84 10.252 24.4651 9.62688C25.0902 9.00176 25.4414 8.15392 25.4414 7.26986Z" fill="#A7016E"/>
</svg>
