<svg width="48" height="48" viewBox="0 0 48 48" fill="none" xmlns="http://www.w3.org/2000/svg">
<path d="M37.01 9.24182H33.2271L30.7313 6.74425C30.4583 6.4734 30.0902 6.31988 29.7056 6.31641H17.9948C17.8027 6.31626 17.6124 6.35396 17.4348 6.42737C17.2572 6.50078 17.0959 6.60846 16.9599 6.74425L14.4642 9.24182H10.6813C9.90541 9.24182 9.16132 9.55003 8.61269 10.0987C8.06407 10.6473 7.75586 11.3914 7.75586 12.1672V39.9587C7.75586 40.7345 8.06407 41.4786 8.61269 42.0273C9.16132 42.5759 9.90541 42.8841 10.6813 42.8841H37.01C37.7859 42.8841 38.53 42.5759 39.0786 42.0273C39.6272 41.4786 39.9354 40.7345 39.9354 39.9587V12.1672C39.9354 11.3914 39.6272 10.6473 39.0786 10.0987C38.53 9.55003 37.7859 9.24182 37.01 9.24182ZM29.9232 10.0756L31.1592 11.3097V20.9435L25.7782 16.2921L29.9232 10.0756ZM16.5321 11.3097L17.7681 10.0756L21.913 16.2921L16.5321 20.9435V11.3097ZM22.3829 39.9587H10.6813V12.1672H13.6067V20.9435C13.6033 21.5002 13.7602 22.0461 14.0589 22.5159C14.3575 22.9857 14.7851 23.3596 15.2906 23.5928C15.6794 23.7742 16.1031 23.8684 16.5321 23.8689C17.2146 23.8677 17.8748 23.6262 18.3971 23.1869C18.4046 23.1818 18.4114 23.1757 18.4172 23.1686L22.3829 19.7514V39.9587ZM20.7374 9.24182H26.9722L23.8456 13.9188L20.7374 9.24182ZM37.01 39.9587H25.3083V19.7514L29.2668 23.1705C29.2726 23.1775 29.2794 23.1836 29.2869 23.1887C29.8113 23.629 30.4744 23.8699 31.1592 23.8689C31.5911 23.8678 32.0174 23.7717 32.408 23.5873C32.9112 23.3534 33.3368 22.98 33.634 22.5113C33.9312 22.0426 34.0876 21.4984 34.0846 20.9435V12.1672H37.01V39.9587Z" fill="#A7016E"/>
</svg>
