<svg width="45" height="32" viewBox="0 0 45 32" fill="none" xmlns="http://www.w3.org/2000/svg">
<path d="M44.8121 11.9606L42.2176 5.47424C41.9975 4.92543 41.6176 4.45537 41.1273 4.12494C40.6369 3.79451 40.0586 3.61894 39.4673 3.62098H33.0588V2.13837C33.0588 1.74516 32.9026 1.36805 32.6245 1.09001C32.3465 0.811965 31.9694 0.655762 31.5762 0.655762H3.40662C2.6202 0.655762 1.86598 0.968167 1.3099 1.52425C0.753812 2.08034 0.441406 2.83455 0.441406 3.62098V24.3775C0.441406 25.1639 0.753812 25.9181 1.3099 26.4742C1.86598 27.0303 2.6202 27.3427 3.40662 27.3427H6.55716C6.88378 28.6184 7.62568 29.749 8.66589 30.5565C9.7061 31.3639 10.9855 31.8022 12.3023 31.8022C13.6191 31.8022 14.8984 31.3639 15.9386 30.5565C16.9789 29.749 17.7208 28.6184 18.0474 27.3427H27.3137C27.6403 28.6184 28.3822 29.749 29.4224 30.5565C30.4626 31.3639 31.742 31.8022 33.0588 31.8022C34.3756 31.8022 35.6549 31.3639 36.6951 30.5565C37.7354 29.749 38.4773 28.6184 38.8039 27.3427H41.9544C42.7408 27.3427 43.4951 27.0303 44.0511 26.4742C44.6072 25.9181 44.9196 25.1639 44.9196 24.3775V12.5166C44.9201 12.3261 44.8836 12.1373 44.8121 11.9606ZM33.0588 6.58619H39.4673L41.2465 11.034H33.0588V6.58619ZM3.40662 3.62098H30.0936L41.9544 13.9992H15.2675L3.40662 3.62098ZM12.3023 28.8253C11.7158 28.8253 11.1425 28.6514 10.6549 28.3256C10.1673 27.9998 9.78719 27.5367 9.56276 26.9948C9.33833 26.453 9.27961 25.8568 9.39403 25.2816C9.50844 24.7064 9.79085 24.1781 10.2055 23.7634C10.6202 23.3487 11.1486 23.0663 11.7238 22.9519C12.299 22.8374 12.8952 22.8962 13.437 23.1206C13.9788 23.345 14.4419 23.7251 14.7678 24.2127C15.0936 24.7003 15.2675 25.2736 15.2675 25.8601C15.2675 26.6465 14.9551 27.4007 14.399 27.9568C13.8429 28.5129 13.0887 28.8253 12.3023 28.8253ZM27.3137 24.3775H18.0474C17.7208 23.1018 16.9789 21.9712 15.9386 21.1637C14.8984 20.3563 13.6191 19.918 12.3023 19.918C10.9855 19.918 9.7061 20.3563 8.66589 21.1637C7.62568 21.9712 6.88378 23.1018 6.55716 24.3775H3.40662V18.4471H30.0936V20.7284C29.4118 21.1225 28.815 21.6479 28.3379 22.2743C27.8607 22.9007 27.5126 23.6156 27.3137 24.3775ZM33.0588 28.8253C32.4723 28.8253 31.899 28.6514 31.4114 28.3256C30.9238 27.9998 30.5437 27.5367 30.3193 26.9948C30.0948 26.453 30.0361 25.8568 30.1505 25.2816C30.2649 24.7064 30.5474 24.1781 30.962 23.7634C31.3767 23.3487 31.9051 23.0663 32.4803 22.9519C33.0555 22.8374 33.6517 22.8962 34.1935 23.1206C34.7353 23.345 35.1984 23.7251 35.5243 24.2127C35.8501 24.7003 36.024 25.2736 36.024 25.8601C36.024 26.6465 35.7116 27.4007 35.1555 27.9568C34.5994 28.5129 33.8452 28.8253 33.0588 28.8253ZM41.9544 24.3775H38.8039C38.4733 23.1049 37.73 21.978 36.6904 21.1731C35.6508 20.3682 34.3735 19.9309 33.0588 19.9297V13.9992L41.9544 13.9992V24.3775Z" fill="#A7016E"/>
</svg>
