<svg width="34" height="25" viewBox="0 0 34 25" fill="none" xmlns="http://www.w3.org/2000/svg">
    <path d="M33.5234 9.45078L31.5757 4.58152C31.4104 4.16954 31.1253 3.81667 30.7572 3.56862C30.3891 3.32057 29.955 3.18878 29.5111 3.1903H24.7003V2.07733C24.7003 1.78215 24.583 1.49906 24.3743 1.29034C24.1656 1.08162 23.8825 0.964355 23.5873 0.964355H2.44079C1.85043 0.964355 1.28425 1.19887 0.866809 1.61632C0.449363 2.03377 0.214844 2.59995 0.214844 3.1903V18.7719C0.214844 19.3623 0.449363 19.9285 0.866809 20.3459C1.28425 20.7634 1.85043 20.9979 2.44079 20.9979H4.80586C5.05105 21.9555 5.60798 22.8043 6.38885 23.4104C7.16973 24.0165 8.13012 24.3455 9.11863 24.3455C10.1071 24.3455 11.0675 24.0165 11.8484 23.4104C12.6293 22.8043 13.1862 21.9555 13.4314 20.9979H20.3875C20.6327 21.9555 21.1896 22.8043 21.9705 23.4104C22.7514 24.0165 23.7118 24.3455 24.7003 24.3455C25.6888 24.3455 26.6492 24.0165 27.43 23.4104C28.2109 22.8043 28.7679 21.9555 29.013 20.9979H31.3781C31.9685 20.9979 32.5346 20.7634 32.9521 20.3459C33.3695 19.9285 33.6041 19.3623 33.6041 18.7719V9.86815C33.6044 9.72511 33.577 9.58337 33.5234 9.45078ZM24.7003 5.41625H29.5111L30.8467 8.75517H24.7003V5.41625ZM2.44079 3.1903H22.4743V12.0941H2.44079V3.1903ZM9.11863 22.1109C8.67838 22.1109 8.24802 21.9803 7.88196 21.7357C7.51591 21.4911 7.2306 21.1435 7.06213 20.7367C6.89365 20.33 6.84957 19.8824 6.93546 19.4506C7.02135 19.0189 7.23335 18.6222 7.54465 18.3109C7.85596 17.9996 8.25258 17.7876 8.68437 17.7017C9.11617 17.6158 9.56373 17.6599 9.97047 17.8284C10.3772 17.9969 10.7249 18.2822 10.9694 18.6482C11.214 19.0143 11.3446 19.4447 11.3446 19.8849C11.3446 20.4753 11.1101 21.0414 10.6926 21.4589C10.2752 21.8763 9.70899 22.1109 9.11863 22.1109ZM20.3875 18.7719H13.4314C13.1862 17.8143 12.6293 16.9655 11.8484 16.3594C11.0675 15.7533 10.1071 15.4243 9.11863 15.4243C8.13012 15.4243 7.16973 15.7533 6.38885 16.3594C5.60798 16.9655 5.05105 17.8143 4.80586 18.7719H2.44079V14.32H22.4743V16.0326C21.9625 16.3284 21.5146 16.7229 21.1563 17.1931C20.7981 17.6633 20.5368 18.2 20.3875 18.7719ZM24.7003 22.1109C24.26 22.1109 23.8297 21.9803 23.4636 21.7357C23.0975 21.4911 22.8122 21.1435 22.6438 20.7367C22.4753 20.33 22.4312 19.8824 22.5171 19.4506C22.603 19.0189 22.815 18.6222 23.1263 18.3109C23.4376 17.9996 23.8342 17.7876 24.266 17.7017C24.6978 17.6158 25.1454 17.6599 25.5521 17.8284C25.9588 17.9969 26.3065 18.2822 26.5511 18.6482C26.7957 19.0143 26.9262 19.4447 26.9262 19.8849C26.9262 20.4753 26.6917 21.0414 26.2743 21.4589C25.8568 21.8763 25.2906 22.1109 24.7003 22.1109ZM31.3781 18.7719H29.013C28.7649 17.8166 28.2069 16.9706 27.4265 16.3664C26.6461 15.7622 25.6873 15.4339 24.7003 15.433V10.9811H31.3781V18.7719Z" fill="#343330"/>
</svg>

